<svg width="512" height="512" viewBox="0 0 512 512" fill="none" xmlns="http://www.w3.org/2000/svg">
    <g filter="url(#filter0_d_1_2)">
        <path
            d="M92.3266 245C57.0945 193.196 74.1614 218.29 18 135.727V370.774C75.1572 274.063 56.2959 305.977 92.3266 245ZM419.674 245C455.629 305.848 436.917 274.188 494 370.774C494 278.982 494 227.519 494 135.727C437.88 218.231 454.82 193.325 419.674 245ZM400.44 273.282C379.121 304.618 385.573 301.114 355.57 301.114C355.57 331.75 337.312 346.27 311.379 346.27C311.379 369.118 293.686 384.418 274.32 384.418H236.136C216.774 384.418 199.076 369.133 199.076 346.27C173.852 346.27 156.43 331.332 156.43 301.114C126.162 301.114 132.72 304.384 111.564 273.282C61.3991 358.149 80.1518 326.422 29.6919 411.809H482.308C431.836 326.399 450.608 358.164 400.44 273.282ZM146.819 270.075H156.43C156.43 240.059 156.213 239.063 157.174 233.34C161.39 207.243 184.124 186.766 211.822 186.766H300.182C327.735 186.766 350.544 207.056 354.838 233.34C355.784 239.094 355.57 240.02 355.57 270.075H365.181C365.266 269.954 480.103 101.121 480.184 101H31.8158L146.819 270.075Z"
            fill="#FBC800" />
        <path
            d="M21.5 357.973V147.095C48.9427 187.439 56.2476 198.176 63.5516 208.915C68.9908 216.912 74.4295 224.909 88.1834 245.132C73.928 269.257 68.6096 278.259 63.2907 287.26C56.2554 299.166 49.2192 311.072 21.5 357.973ZM448.407 208.978C455.73 198.211 463.054 187.445 490.5 147.096V147.343V147.861V148.378V148.894V149.409V149.924V150.438V150.951V151.463V151.974V152.485V152.995V153.504V154.012V154.519V155.026V155.532V156.036V156.541V157.044V157.547V158.049V158.55V159.05V159.55V160.048V160.547V161.044V161.54V162.036V162.531V163.026V163.519V164.012V164.504V164.996V165.487V165.977V166.466V166.954V167.442V167.93V168.416V168.902V169.387V169.871V170.355V170.838V171.321V171.802V172.283V172.764V173.244V173.723V174.201V174.679V175.156V175.632V176.108V176.584V177.058V177.532V178.005V178.478V178.95V179.422V179.893V180.363V180.833V181.302V181.77V182.238V182.705V183.172V183.638V184.104V184.569V185.033V185.497V185.96V186.423V186.885V187.347V187.808V188.268V188.728V189.188V189.647V190.105V190.563V191.02V191.477V191.933V192.389V192.844V193.299V193.754V194.207V194.661V195.113V195.566V196.017V196.469V196.92V197.37V197.82V198.269V198.718V199.167V199.615V200.063V200.51V200.957V201.403V201.849V202.294V202.739V203.184V203.628V204.072V204.515V204.958V205.401V205.843V206.284V206.726V207.167V207.607V208.047V208.487V208.926V209.365V209.804V210.242V210.68V211.118V211.555V211.992V212.428V212.864V213.3V213.736V214.171V214.606V215.04V215.474V215.908V216.341V216.775V217.208V217.64V218.072V218.504V218.936V219.367V219.798V220.229V220.66V221.09V221.52V221.95V222.379V222.808V223.237V223.666V224.094V224.522V224.95V225.378V225.805V226.233V226.66V227.086V227.513V227.939V228.365V228.791V229.217V229.642V230.067V230.492V230.917V231.342V231.766V232.191V232.615V233.039V233.463V233.886V234.31V234.733V235.156V235.579V236.002V236.424V236.847V237.269V237.691V238.114V238.535V238.957V239.379V239.801V240.222V240.644V241.065V241.486V241.907V242.328V242.749V243.17V243.59V244.011V244.431V244.852V245.272V245.693V246.113V246.533V246.953V247.373V247.793V248.213V248.633V249.053V249.473V249.893V250.312V250.732V251.152V251.572V251.991V252.411V252.831V253.251V253.67V254.09V254.51V254.929V255.349V255.769V256.189V256.608V257.028V257.448V257.868V258.288V258.708V259.128V259.548V259.968V260.388V260.809V261.229V261.649V262.07V262.49V262.911V263.332V263.752V264.173V264.594V265.015V265.436V265.858V266.279V266.7V267.122V267.544V267.966V268.388V268.81V269.232V269.654V270.077V270.499V270.922V271.345V271.768V272.192V272.615V273.039V273.462V273.886V274.31V274.735V275.159V275.584V276.009V276.434V276.859V277.284V277.71V278.136V278.562V278.988V279.415V279.842V280.268V280.696V281.123V281.551V281.979V282.407V282.835V283.264V283.693V284.122V284.551V284.981V285.411V285.841V286.272V286.703V287.134V287.565V287.997V288.429V288.861V289.294V289.726V290.16V290.593V291.027V291.461V291.896V292.33V292.765V293.201V293.637V294.073V294.509V294.946V295.383V295.821V296.259V296.697V297.136V297.575V298.014V298.454V298.894V299.334V299.775V300.217V300.658V301.101V301.543V301.986V302.429V302.873V303.317V303.762V304.207V304.652V305.098V305.544V305.991V306.438V306.886V307.334V307.783V308.232V308.681V309.131V309.581V310.032V310.484V310.935V311.388V311.841V312.294V312.748V313.202V313.657V314.112V314.568V315.024V315.481V315.938V316.396V316.854V317.313V317.773V318.233V318.693V319.154V319.616V320.078V320.541V321.004V321.468V321.932V322.397V322.863V323.329V323.796V324.263V324.731V325.199V325.669V326.138V326.609V327.079V327.551V328.023V328.496V328.969V329.443V329.918V330.393V330.869V331.345V331.822V332.3V332.779V333.258V333.737V334.218V334.699V335.181V335.663V336.146V336.63V337.114V337.599V338.085V338.572V339.059V339.547V340.035V340.525V341.015V341.505V341.997V342.489V342.982V343.475V343.97V344.465V344.961V345.457V345.955V346.453V346.951V347.451V347.951V348.452V348.954V349.457V349.96V350.465V350.97V351.475V351.982V352.489V352.997V353.506V354.016V354.527V355.038V355.55V356.063V356.577V357.092V357.607V357.973C456.419 300.308 453.589 295.518 443.557 278.539C439.28 271.3 433.693 261.845 423.818 245.132C437.521 224.983 442.964 216.98 448.407 208.978ZM345.618 337.711C353.632 330.052 358.335 318.946 358.991 304.629C360.58 304.642 362.073 304.662 363.474 304.681C367.018 304.728 369.97 304.768 372.383 304.669C376.56 304.499 379.964 303.914 383.134 301.906C386.175 299.98 388.643 296.959 391.519 292.861C393 290.752 394.72 288.154 396.763 285.071C397.832 283.457 398.988 281.711 400.245 279.832C423.061 318.435 430.628 331.237 438.194 344.039C445.764 356.847 453.333 369.656 476.174 408.309H35.8257C58.6603 369.669 66.2315 356.856 73.8038 344.043C81.3727 331.237 88.9426 318.43 111.757 279.834C113.101 281.847 114.332 283.712 115.462 285.424C117.367 288.312 118.985 290.763 120.371 292.753C123.215 296.836 125.661 299.865 128.691 301.808C131.851 303.834 135.261 304.446 139.467 304.636C141.995 304.75 145.094 304.714 148.843 304.67C150.151 304.655 151.538 304.639 153.008 304.628C153.64 318.725 158.121 329.797 165.819 337.498C173.427 345.109 183.812 349.062 195.7 349.683C197.377 372.668 215.907 387.918 236.136 387.918H274.32C294.551 387.918 313.074 372.657 314.755 349.69C326.961 349.102 337.709 345.268 345.618 337.711ZM153.721 232.77C152.884 237.756 152.887 239.65 152.916 256.463C152.921 259.36 152.927 262.7 152.929 266.575H148.671L38.4294 104.5H473.571L472.329 106.326L459.298 125.484L419.79 183.569C405.425 204.688 391.06 225.808 380.281 241.655C373.297 251.922 367.837 259.949 364.85 264.34C364.236 265.243 363.726 265.992 363.329 266.575H359.071C359.073 262.685 359.079 259.334 359.084 256.431C359.112 239.622 359.115 237.783 358.292 232.776C353.73 204.846 329.497 183.266 300.182 183.266H211.822C182.358 183.266 158.207 205.036 153.721 232.77Z"
            stroke="#4D4C42" stroke-width="7" />
    </g>
    <path
        d="M229.709 344.39C229.709 347.797 232.47 350.57 235.858 350.57H274.042C277.43 350.57 280.192 347.797 280.192 344.39V327.941C280.192 319.371 287.107 312.418 295.649 312.418H315.42C320.356 312.418 324.381 308.383 324.381 303.418V239.586C324.381 226.191 313.637 215.226 300.325 215.012C300.18 215 300.048 215 299.904 215H211.544C211.4 215 211.265 215 211.121 215.012C199.264 215.203 187.658 224.016 187.137 239.914C186.88 247.664 187.063 263.957 187.063 303.418C187.063 308.383 191.092 312.418 196.028 312.418H214.251C222.785 312.418 229.709 319.371 229.709 327.941V344.39ZM287.982 280.406C280.246 280.406 273.848 274.703 272.704 267.266C272.467 265.66 272.529 266.219 272.529 250.086C272.529 241.52 279.441 234.566 287.982 234.566C296.512 234.566 303.436 241.52 303.436 250.086C303.436 266.238 303.494 265.664 303.261 267.266C302.106 274.703 295.707 280.406 287.982 280.406ZM206.465 250.086C206.465 241.52 213.376 234.566 221.918 234.566C230.448 234.566 237.375 241.52 237.375 250.086C237.375 266.234 237.433 265.664 237.196 267.266C236.045 274.703 229.646 280.406 221.917 280.406C214.181 280.406 207.783 274.703 206.64 267.266C206.402 265.645 206.465 266.176 206.465 250.086Z"
        fill="#696666" />
    <defs>
        <filter id="filter0_d_1_2" x="14" y="101" width="484" height="318.809" filterUnits="userSpaceOnUse"
            color-interpolation-filters="sRGB">
            <feFlood flood-opacity="0" result="BackgroundImageFix" />
            <feColorMatrix in="SourceAlpha" type="matrix" values="0 0 0 0 0 0 0 0 0 0 0 0 0 0 0 0 0 0 127 0"
                result="hardAlpha" />
            <feOffset dy="4" />
            <feGaussianBlur stdDeviation="2" />
            <feComposite in2="hardAlpha" operator="out" />
            <feColorMatrix type="matrix" values="0 0 0 0 0 0 0 0 0 0 0 0 0 0 0 0 0 0 0.25 0" />
            <feBlend mode="normal" in2="BackgroundImageFix" result="effect1_dropShadow_1_2" />
            <feBlend mode="normal" in="SourceGraphic" in2="effect1_dropShadow_1_2" result="shape" />
        </filter>
    </defs>
</svg>