<svg width="484" height="319" viewBox="0 0 484 319" fill="none" xmlns="http://www.w3.org/2000/svg">
    <g filter="url(#filter0_d_1_3)">
        <path
            d="M78.3266 144C43.0945 92.1961 60.1614 117.29 4 34.727V269.774C61.1572 173.063 42.2959 204.977 78.3266 144ZM405.674 144C441.629 204.848 422.917 173.188 480 269.774C480 177.982 480 126.519 480 34.727C423.88 117.231 440.82 92.3251 405.674 144ZM386.44 172.282C365.121 203.618 371.573 200.114 341.57 200.114C341.57 230.75 323.312 245.27 297.379 245.27C297.379 268.118 279.686 283.418 260.32 283.418H222.136C202.774 283.418 185.076 268.133 185.076 245.27C159.852 245.27 142.43 230.332 142.43 200.114C112.162 200.114 118.72 203.384 97.5642 172.282C47.3991 257.149 66.1518 225.422 15.6919 310.809H468.308C417.836 225.399 436.608 257.164 386.44 172.282ZM132.819 169.075H142.43C142.43 139.059 142.213 138.063 143.174 132.34C147.39 106.243 170.124 85.766 197.822 85.766H286.182C313.735 85.766 336.544 106.056 340.838 132.34C341.784 138.094 341.57 139.02 341.57 169.075H351.181C351.266 168.954 466.103 0.121 466.184 0H17.8158L132.819 169.075Z"
            fill="#FBC800" />
        <path
            d="M7.5 256.973V46.0952C34.9427 86.4386 42.2476 97.1765 49.5516 107.915C54.9908 115.912 60.4295 123.909 74.1834 144.132C59.928 168.257 54.6096 177.259 49.2907 186.26C42.2554 198.166 35.2192 210.072 7.5 256.973ZM434.407 107.978C441.73 97.2112 449.054 86.4448 476.5 46.0956V46.3425V46.8605V47.3777V47.894V48.4094V48.9241V49.4379V49.9509V50.4631V50.9745V51.485V51.9948V52.5037V53.0119V53.5192V54.0257V54.5315V55.0365V55.5407V56.0441V56.5467V57.0486V57.5497V58.05V58.5496V59.0484V59.5465V60.0438V60.5404V61.0362V61.5313V62.0257V62.5193V63.0122V63.5043V63.9958V64.4865V64.9765V65.4658V65.9544V66.4423V66.9295V67.416V67.9018V68.3869V68.8714V69.3551V69.8382V70.3206V70.8023V71.2834V71.7638V72.2435V72.7226V73.201V73.6788V74.1559V74.6324V75.1083V75.5835V76.0581V76.5321V77.0054V77.4781V77.9502V78.4217V78.8926V79.3629V79.8325V80.3016V80.7701V81.238V81.7053V82.172V82.6381V83.1037V83.5687V84.0331V84.4969V84.9602V85.4229V85.8851V86.3467V86.8078V87.2683V87.7283V88.1878V88.6467V89.1051V89.5629V90.0203V90.4771V90.9334V91.3892V91.8445V92.2992V92.7535V93.2073V93.6606V94.1134V94.5657V95.0175V95.4688V95.9197V96.3701V96.82V97.2695V97.7185V98.167V98.6151V99.0628V99.51V99.9567V100.403V100.849V101.294V101.739V102.184V102.628V103.072V103.515V103.958V104.401V104.843V105.284V105.726V106.167V106.607V107.047V107.487V107.926V108.365V108.804V109.242V109.68V110.118V110.555V110.992V111.428V111.864V112.3V112.736V113.171V113.606V114.04V114.474V114.908V115.341V115.775V116.208V116.64V117.072V117.504V117.936V118.367V118.798V119.229V119.66V120.09V120.52V120.95V121.379V121.808V122.237V122.666V123.094V123.522V123.95V124.378V124.805V125.233V125.66V126.086V126.513V126.939V127.365V127.791V128.217V128.642V129.067V129.492V129.917V130.342V130.766V131.191V131.615V132.039V132.463V132.886V133.31V133.733V134.156V134.579V135.002V135.424V135.847V136.269V136.691V137.114V137.535V137.957V138.379V138.801V139.222V139.644V140.065V140.486V140.907V141.328V141.749V142.17V142.59V143.011V143.431V143.852V144.272V144.693V145.113V145.533V145.953V146.373V146.793V147.213V147.633V148.053V148.473V148.893V149.312V149.732V150.152V150.572V150.991V151.411V151.831V152.251V152.67V153.09V153.51V153.929V154.349V154.769V155.189V155.608V156.028V156.448V156.868V157.288V157.708V158.128V158.548V158.968V159.388V159.809V160.229V160.649V161.07V161.49V161.911V162.332V162.752V163.173V163.594V164.015V164.436V164.858V165.279V165.7V166.122V166.544V166.966V167.388V167.81V168.232V168.654V169.077V169.499V169.922V170.345V170.768V171.192V171.615V172.039V172.462V172.886V173.31V173.735V174.159V174.584V175.009V175.434V175.859V176.284V176.71V177.136V177.562V177.988V178.415V178.842V179.268V179.696V180.123V180.551V180.979V181.407V181.835V182.264V182.693V183.122V183.551V183.981V184.411V184.841V185.272V185.703V186.134V186.565V186.997V187.429V187.861V188.294V188.726V189.16V189.593V190.027V190.461V190.896V191.33V191.765V192.201V192.637V193.073V193.509V193.946V194.383V194.821V195.259V195.697V196.136V196.575V197.014V197.454V197.894V198.334V198.775V199.217V199.658V200.101V200.543V200.986V201.429V201.873V202.317V202.762V203.207V203.652V204.098V204.544V204.991V205.438V205.886V206.334V206.783V207.232V207.681V208.131V208.581V209.032V209.484V209.935V210.388V210.841V211.294V211.748V212.202V212.657V213.112V213.568V214.024V214.481V214.938V215.396V215.854V216.313V216.773V217.233V217.693V218.154V218.616V219.078V219.541V220.004V220.468V220.932V221.397V221.863V222.329V222.796V223.263V223.731V224.199V224.669V225.138V225.609V226.079V226.551V227.023V227.496V227.969V228.443V228.918V229.393V229.869V230.345V230.822V231.3V231.779V232.258V232.737V233.218V233.699V234.181V234.663V235.146V235.63V236.114V236.599V237.085V237.572V238.059V238.547V239.035V239.525V240.015V240.505V240.997V241.489V241.982V242.475V242.97V243.465V243.961V244.457V244.955V245.453V245.951V246.451V246.951V247.452V247.954V248.457V248.96V249.465V249.97V250.475V250.982V251.489V251.997V252.506V253.016V253.527V254.038V254.55V255.063V255.577V256.092V256.607V256.973C442.428 199.322 439.59 194.52 429.565 177.552C425.286 170.311 419.699 160.855 409.818 144.132C423.521 123.983 428.964 115.98 434.407 107.978ZM331.618 236.711C339.632 229.052 344.335 217.946 344.991 203.629C346.58 203.642 348.073 203.662 349.474 203.681C353.018 203.728 355.97 203.768 358.383 203.669C362.56 203.499 365.964 202.914 369.134 200.906C372.175 198.98 374.643 195.959 377.519 191.861C379 189.752 380.72 187.154 382.763 184.071C383.832 182.457 384.988 180.711 386.245 178.832C409.061 217.435 416.628 230.237 424.194 243.039C431.764 255.847 439.333 268.656 462.174 307.309H21.8257C44.6603 268.669 52.2315 255.856 59.8038 243.043C67.3727 230.237 74.9426 217.43 97.7572 178.834C99.1007 180.847 100.332 182.712 101.462 184.424C103.367 187.312 104.985 189.763 106.371 191.753C109.215 195.836 111.661 198.865 114.691 200.808C117.851 202.834 121.261 203.446 125.467 203.636C127.995 203.75 131.094 203.714 134.843 203.67C136.151 203.655 137.538 203.639 139.008 203.628C139.64 217.725 144.121 228.797 151.819 236.498C159.427 244.109 169.812 248.062 181.7 248.683C183.377 271.668 201.907 286.918 222.136 286.918H260.32C280.551 286.918 299.074 271.657 300.755 248.69C312.961 248.102 323.709 244.268 331.618 236.711ZM139.721 131.77C138.884 136.756 138.887 138.65 138.916 155.463C138.921 158.36 138.927 161.7 138.929 165.575H134.671L24.4294 3.5H459.571L458.329 5.32632L445.298 24.4836L405.79 82.5691C391.425 103.688 377.06 124.808 366.281 140.655C357.861 153.033 351.656 162.155 349.329 165.575H345.071C345.073 161.685 345.079 158.334 345.084 155.431C345.112 138.622 345.115 136.783 344.292 131.776C339.73 103.846 315.497 82.266 286.182 82.266H197.822C168.358 82.266 144.207 104.036 139.721 131.77Z"
            stroke="#4D4C42" stroke-width="7" />
    </g>
    <path
        d="M215.709 243.39C215.709 246.797 218.47 249.57 221.858 249.57H260.042C263.43 249.57 266.192 246.797 266.192 243.39V226.941C266.192 218.371 273.107 211.418 281.649 211.418H301.42C306.356 211.418 310.381 207.383 310.381 202.418V138.586C310.381 125.191 299.637 114.226 286.325 114.012C286.18 114 286.048 114 285.904 114H197.544C197.4 114 197.265 114 197.121 114.012C185.264 114.203 173.658 123.016 173.137 138.914C172.88 146.664 173.063 162.957 173.063 202.418C173.063 207.383 177.092 211.418 182.028 211.418H200.251C208.785 211.418 215.709 218.371 215.709 226.941V243.39ZM273.982 179.406C266.246 179.406 259.848 173.703 258.704 166.266C258.467 164.66 258.529 165.219 258.529 149.086C258.529 140.52 265.441 133.566 273.982 133.566C282.512 133.566 289.436 140.52 289.436 149.086C289.436 165.238 289.494 164.664 289.261 166.266C288.106 173.703 281.707 179.406 273.982 179.406ZM192.465 149.086C192.465 140.52 199.376 133.566 207.918 133.566C216.448 133.566 223.375 140.52 223.375 149.086C223.375 165.234 223.433 164.664 223.196 166.266C222.045 173.703 215.646 179.406 207.917 179.406C200.181 179.406 193.783 173.703 192.64 166.266C192.402 164.645 192.465 165.176 192.465 149.086Z"
        fill="#ECECEC" />
    <defs>
        <filter id="filter0_d_1_3" x="0" y="0" width="484" height="318.809" filterUnits="userSpaceOnUse"
            color-interpolation-filters="sRGB">
            <feFlood flood-opacity="0" result="BackgroundImageFix" />
            <feColorMatrix in="SourceAlpha" type="matrix" values="0 0 0 0 0 0 0 0 0 0 0 0 0 0 0 0 0 0 127 0"
                result="hardAlpha" />
            <feOffset dy="4" />
            <feGaussianBlur stdDeviation="2" />
            <feComposite in2="hardAlpha" operator="out" />
            <feColorMatrix type="matrix" values="0 0 0 0 0 0 0 0 0 0 0 0 0 0 0 0 0 0 0.25 0" />
            <feBlend mode="normal" in2="BackgroundImageFix" result="effect1_dropShadow_1_3" />
            <feBlend mode="normal" in="SourceGraphic" in2="effect1_dropShadow_1_3" result="shape" />
        </filter>
    </defs>
</svg>